<svg width="20" height="20" viewBox="0 0 20 20" fill="none" xmlns="http://www.w3.org/2000/svg">
<path d="M15 11.6654V9.16536H12.5V7.4987H15V4.9987H16.6667V7.4987H19.1667V9.16536H16.6667V11.6654H15ZM7.5 9.9987C6.58333 9.9987 5.79861 9.67231 5.14583 9.01953C4.49306 8.36675 4.16667 7.58203 4.16667 6.66536C4.16667 5.7487 4.49306 4.96398 5.14583 4.3112C5.79861 3.65842 6.58333 3.33203 7.5 3.33203C8.41667 3.33203 9.20139 3.65842 9.85417 4.3112C10.5069 4.96398 10.8333 5.7487 10.8333 6.66536C10.8333 7.58203 10.5069 8.36675 9.85417 9.01953C9.20139 9.67231 8.41667 9.9987 7.5 9.9987ZM0.833333 16.6654V14.332C0.833333 13.8598 0.954861 13.4258 1.19792 13.0299C1.44097 12.6341 1.76389 12.332 2.16667 12.1237C3.02778 11.6931 3.90278 11.3702 4.79167 11.1549C5.68056 10.9397 6.58333 10.832 7.5 10.832C8.41667 10.832 9.31944 10.9397 10.2083 11.1549C11.0972 11.3702 11.9722 11.6931 12.8333 12.1237C13.2361 12.332 13.559 12.6341 13.8021 13.0299C14.0451 13.4258 14.1667 13.8598 14.1667 14.332V16.6654H0.833333ZM2.5 14.9987H12.5V14.332C12.5 14.1793 12.4618 14.0404 12.3854 13.9154C12.309 13.7904 12.2083 13.6931 12.0833 13.6237C11.3333 13.2487 10.5764 12.9674 9.8125 12.7799C9.04861 12.5924 8.27778 12.4987 7.5 12.4987C6.72222 12.4987 5.95139 12.5924 5.1875 12.7799C4.42361 12.9674 3.66667 13.2487 2.91667 13.6237C2.79167 13.6931 2.69097 13.7904 2.61458 13.9154C2.53819 14.0404 2.5 14.1793 2.5 14.332V14.9987ZM7.5 8.33203C7.95833 8.33203 8.35069 8.16884 8.67708 7.84245C9.00347 7.51606 9.16667 7.1237 9.16667 6.66536C9.16667 6.20703 9.00347 5.81467 8.67708 5.48828C8.35069 5.16189 7.95833 4.9987 7.5 4.9987C7.04167 4.9987 6.64931 5.16189 6.32292 5.48828C5.99653 5.81467 5.83333 6.20703 5.83333 6.66536C5.83333 7.1237 5.99653 7.51606 6.32292 7.84245C6.64931 8.16884 7.04167 8.33203 7.5 8.33203Z" fill="#474747"/>
</svg>
