<svg width="20" height="20" viewBox="0 0 20 20" fill="none" xmlns="http://www.w3.org/2000/svg">
<path d="M0.833336 16.6654V14.332C0.833336 13.8598 0.954864 13.4258 1.19792 13.0299C1.44097 12.6341 1.76389 12.332 2.16667 12.1237C3.02778 11.6931 3.90278 11.3702 4.79167 11.1549C5.68056 10.9397 6.58334 10.832 7.5 10.832C8.41667 10.832 9.31945 10.9397 10.2083 11.1549C11.0972 11.3702 11.9722 11.6931 12.8333 12.1237C13.2361 12.332 13.559 12.6341 13.8021 13.0299C14.0451 13.4258 14.1667 13.8598 14.1667 14.332V16.6654H0.833336ZM15.8333 16.6654V14.1654C15.8333 13.5543 15.6632 12.9674 15.3229 12.4049C14.9826 11.8424 14.5 11.3598 13.875 10.957C14.5833 11.0404 15.25 11.1827 15.875 11.3841C16.5 11.5855 17.0833 11.832 17.625 12.1237C18.125 12.4015 18.5069 12.7105 18.7708 13.0508C19.0347 13.3911 19.1667 13.7626 19.1667 14.1654V16.6654H15.8333ZM7.5 9.9987C6.58334 9.9987 5.79861 9.67231 5.14584 9.01953C4.49306 8.36675 4.16667 7.58203 4.16667 6.66536C4.16667 5.7487 4.49306 4.96398 5.14584 4.3112C5.79861 3.65842 6.58334 3.33203 7.5 3.33203C8.41667 3.33203 9.20139 3.65842 9.85417 4.3112C10.5069 4.96398 10.8333 5.7487 10.8333 6.66536C10.8333 7.58203 10.5069 8.36675 9.85417 9.01953C9.20139 9.67231 8.41667 9.9987 7.5 9.9987ZM15.8333 6.66536C15.8333 7.58203 15.5069 8.36675 14.8542 9.01953C14.2014 9.67231 13.4167 9.9987 12.5 9.9987C12.3472 9.9987 12.1528 9.98134 11.9167 9.94661C11.6806 9.91189 11.4861 9.8737 11.3333 9.83203C11.7083 9.38759 11.9965 8.89453 12.1979 8.35286C12.3993 7.8112 12.5 7.2487 12.5 6.66536C12.5 6.08203 12.3993 5.51953 12.1979 4.97786C11.9965 4.4362 11.7083 3.94314 11.3333 3.4987C11.5278 3.42925 11.7222 3.38411 11.9167 3.36328C12.1111 3.34245 12.3056 3.33203 12.5 3.33203C13.4167 3.33203 14.2014 3.65842 14.8542 4.3112C15.5069 4.96398 15.8333 5.7487 15.8333 6.66536ZM2.5 14.9987H12.5V14.332C12.5 14.1793 12.4618 14.0404 12.3854 13.9154C12.309 13.7904 12.2083 13.6931 12.0833 13.6237C11.3333 13.2487 10.5764 12.9674 9.8125 12.7799C9.04861 12.5924 8.27778 12.4987 7.5 12.4987C6.72222 12.4987 5.95139 12.5924 5.1875 12.7799C4.42361 12.9674 3.66667 13.2487 2.91667 13.6237C2.79167 13.6931 2.69097 13.7904 2.61459 13.9154C2.5382 14.0404 2.5 14.1793 2.5 14.332V14.9987ZM7.5 8.33203C7.95834 8.33203 8.3507 8.16884 8.67709 7.84245C9.00348 7.51606 9.16667 7.1237 9.16667 6.66536C9.16667 6.20703 9.00348 5.81467 8.67709 5.48828C8.3507 5.16189 7.95834 4.9987 7.5 4.9987C7.04167 4.9987 6.64931 5.16189 6.32292 5.48828C5.99653 5.81467 5.83334 6.20703 5.83334 6.66536C5.83334 7.1237 5.99653 7.51606 6.32292 7.84245C6.64931 8.16884 7.04167 8.33203 7.5 8.33203Z" fill="#474747"/>
</svg>
