<svg width="20" height="20" viewBox="0 0 20 20" fill="none" xmlns="http://www.w3.org/2000/svg">
<path fill-rule="evenodd" clip-rule="evenodd" d="M9.16667 9.16667V2.5H2.5V9.16667H9.16667ZM4.16667 7.5H7.5V4.16667H4.16667V7.5ZM10.8333 17.5H17.5V10.8333H10.8333V17.5ZM12.5 12.5V15.8333H15.8333V12.5H12.5ZM9.16667 15.3663C9.30151 14.9917 9.375 14.5878 9.375 14.1667C9.375 13.7456 9.30151 13.3417 9.16667 12.967C8.80997 11.9761 8.02394 11.19 7.03297 10.8333C6.65834 10.6985 6.25442 10.625 5.83333 10.625C5.41225 10.625 5.00833 10.6985 4.6337 10.8333C3.2681 11.3249 2.29167 12.6317 2.29167 14.1667C2.29167 16.1227 3.87733 17.7083 5.83333 17.7083C7.36826 17.7083 8.67513 16.7319 9.16667 15.3663ZM3.95833 14.1667C3.95833 15.2022 4.7978 16.0417 5.83333 16.0417C6.86887 16.0417 7.70833 15.2022 7.70833 14.1667C7.70833 13.1311 6.86887 12.2917 5.83333 12.2917C4.7978 12.2917 3.95833 13.1311 3.95833 14.1667Z" fill="#474747"/>
<path d="M15 2.5H13.3333V5H10.8333V6.66667H13.3333V9.16667H15V6.66667H17.5V5H15V2.5Z" fill="#474747"/>
</svg>
