<svg width="30" height="28" viewBox="0 0 30 28" fill="none" xmlns="http://www.w3.org/2000/svg">
<path fill-rule="evenodd" clip-rule="evenodd" d="M20 17.8V24H4V8H12C12 8.68493 12.0689 9.35378 12.2 10H6V17H9.2C9.4 17.6 9.75833 18.0833 10.275 18.45C10.7917 18.8167 11.3667 19 12 19C12.6333 19 13.2083 18.8167 13.725 18.45C14.2417 18.0833 14.6 17.6 14.8 17H17.6359C18.3773 17.3602 19.17 17.6315 20 17.8ZM18 19V22H6V19H8C8.5 19.6333 9.09583 20.125 9.7875 20.475C10.4792 20.825 11.2167 21 12 21C12.7833 21 13.5208 20.825 14.2125 20.475C14.9042 20.125 15.5 19.6333 16 19H18Z" fill="#767676"/>
<rect x="14" width="16" height="16" rx="8" fill="#E44E48"/>
<path d="M19.1527 11.74L21.7727 8.97C22.1193 8.60333 22.3927 8.26 22.5927 7.94C22.7993 7.61333 22.9027 7.28667 22.9027 6.96C22.9027 6.66 22.8227 6.42333 22.6627 6.25C22.5027 6.07667 22.266 5.99 21.9527 5.99C21.6327 5.99 21.376 6.09 21.1827 6.29C20.9893 6.49 20.866 6.82667 20.8127 7.3H19.3427C19.3827 6.46667 19.636 5.83333 20.1027 5.4C20.576 4.96667 21.216 4.75 22.0227 4.75C22.416 4.75 22.766 4.80333 23.0727 4.91C23.386 5.01667 23.6493 5.16333 23.8627 5.35C24.0693 5.54333 24.226 5.77333 24.3327 6.04C24.446 6.30667 24.5027 6.6 24.5027 6.92C24.5027 7.39333 24.376 7.83333 24.1227 8.24C23.8693 8.64667 23.536 9.05 23.1227 9.45L21.7727 10.77H24.5527V12H19.1527V11.74Z" fill="white"/>
</svg>
