<svg width="20" height="20" viewBox="0 0 20 20" fill="none" xmlns="http://www.w3.org/2000/svg">
<path fill-rule="evenodd" clip-rule="evenodd" d="M5 11.6654C4.0775 11.6654 3.33333 10.9195 3.33333 9.9987C3.33333 9.07703 4.0775 8.33203 5 8.33203C5.92083 8.33203 6.66667 9.07703 6.66667 9.9987C6.66667 10.9195 5.92083 11.6654 5 11.6654ZM8.33333 9.9987C8.33333 10.9195 9.08 11.6654 10 11.6654C10.9217 11.6654 11.6667 10.9195 11.6667 9.9987C11.6667 9.07703 10.9217 8.33203 10 8.33203C9.08 8.33203 8.33333 9.07703 8.33333 9.9987ZM13.3333 9.9987C13.3333 10.9195 14.0792 11.6654 15 11.6654C15.9208 11.6654 16.6667 10.9195 16.6667 9.9987C16.6667 9.07703 15.9208 8.33203 15 8.33203C14.0792 8.33203 13.3333 9.07703 13.3333 9.9987Z" fill="#474747"/>
</svg>
