<svg width="20" height="20" viewBox="0 0 20 20" fill="none" xmlns="http://www.w3.org/2000/svg">
<path fill-rule="evenodd" clip-rule="evenodd" d="M10.0417 12.918C10.8472 12.918 11.5347 12.6332 12.1042 12.0638C12.6736 11.4944 12.9583 10.8069 12.9583 10.0013C12.9583 9.19575 12.6736 8.50825 12.1042 7.9388C11.5347 7.36936 10.8472 7.08464 10.0417 7.08464C9.22223 7.08464 8.53126 7.36936 7.96876 7.9388C7.40626 8.50825 7.12501 9.19575 7.12501 10.0013C7.12501 10.8069 7.40626 11.4944 7.96876 12.0638C8.53126 12.6332 9.22223 12.918 10.0417 12.918ZM10.0417 11.2513C9.69445 11.2513 9.39932 11.1298 9.15626 10.8867C8.9132 10.6437 8.79168 10.3485 8.79168 10.0013C8.79168 9.65408 8.9132 9.35894 9.15626 9.11589C9.39932 8.87283 9.69445 8.7513 10.0417 8.7513C10.3889 8.7513 10.684 8.87283 10.9271 9.11589C11.1701 9.35894 11.2917 9.65408 11.2917 10.0013C11.2917 10.3485 11.1701 10.6437 10.9271 10.8867C10.684 11.1298 10.3889 11.2513 10.0417 11.2513Z" fill="#474747"/>
<path fill-rule="evenodd" clip-rule="evenodd" d="M7.70834 18.3346L7.37501 15.668C7.19445 15.5985 7.02431 15.5152 6.86459 15.418C6.70487 15.3207 6.54862 15.2166 6.39584 15.1055L3.91668 16.1471L1.62501 12.1888L3.77084 10.5638C3.75695 10.4666 3.75001 10.3728 3.75001 10.2826V9.72005C3.75001 9.62977 3.75695 9.53602 3.77084 9.4388L1.62501 7.8138L3.91668 3.85547L6.39584 4.89714C6.54862 4.78602 6.70834 4.68186 6.87501 4.58464C7.04168 4.48741 7.20834 4.40408 7.37501 4.33464L7.70834 1.66797H12.2917L12.625 4.33464C12.8056 4.40408 12.9757 4.48741 13.1354 4.58464C13.2951 4.68186 13.4514 4.78602 13.6042 4.89714L16.0833 3.85547L18.375 7.8138L16.2292 9.4388C16.2431 9.53602 16.25 9.62977 16.25 9.72005V10.2826C16.25 10.3728 16.2361 10.4666 16.2083 10.5638L18.3542 12.1888L16.0625 16.1471L13.6042 15.1055C13.4514 15.2166 13.2917 15.3207 13.125 15.418C12.9583 15.5152 12.7917 15.5985 12.625 15.668L12.2917 18.3346H7.70834ZM9.16668 16.668H10.8125L11.1042 14.4596C11.5347 14.3485 11.934 14.1853 12.3021 13.9701C12.6701 13.7548 13.007 13.4944 13.3125 13.1888L15.375 14.043L16.1875 12.6263L14.3958 11.2721C14.4653 11.0777 14.5139 10.8728 14.5417 10.6576C14.5695 10.4423 14.5833 10.2235 14.5833 10.0013C14.5833 9.77908 14.5695 9.56033 14.5417 9.34505C14.5139 9.12977 14.4653 8.92491 14.3958 8.73047L16.1875 7.3763L15.375 5.95964L13.3125 6.83464C13.007 6.51519 12.6701 6.24783 12.3021 6.03255C11.934 5.81727 11.5347 5.65408 11.1042 5.54297L10.8333 3.33464H9.18751L8.89584 5.54297C8.46529 5.65408 8.06598 5.81727 7.69793 6.03255C7.32987 6.24783 6.99307 6.50825 6.68751 6.8138L4.62501 5.95964L3.81251 7.3763L5.60418 8.70964C5.53473 8.91797 5.48612 9.1263 5.45834 9.33464C5.43056 9.54297 5.41668 9.76519 5.41668 10.0013C5.41668 10.2235 5.43056 10.4388 5.45834 10.6471C5.48612 10.8555 5.53473 11.0638 5.60418 11.2721L3.81251 12.6263L4.62501 14.043L6.68751 13.168C6.99307 13.4874 7.32987 13.7548 7.69793 13.9701C8.06598 14.1853 8.46529 14.3485 8.89584 14.4596L9.16668 16.668Z" fill="#474747"/>
</svg>
