<svg width="20" height="20" viewBox="0 0 20 20" fill="none" xmlns="http://www.w3.org/2000/svg">
<path d="M1.66667 9.16797L5.83333 1.66797L10 9.16797H1.66667ZM5.83333 17.5013C4.91667 17.5013 4.13194 17.1749 3.47917 16.5221C2.82639 15.8694 2.5 15.0846 2.5 14.168C2.5 13.2374 2.82639 12.4492 3.47917 11.8034C4.13194 11.1576 4.91667 10.8346 5.83333 10.8346C6.75 10.8346 7.53472 11.161 8.1875 11.8138C8.84028 12.4666 9.16667 13.2513 9.16667 14.168C9.16667 15.0846 8.84028 15.8694 8.1875 16.5221C7.53472 17.1749 6.75 17.5013 5.83333 17.5013ZM5.83333 15.8346C6.29167 15.8346 6.68403 15.6714 7.01042 15.3451C7.3368 15.0187 7.5 14.6263 7.5 14.168C7.5 13.7096 7.3368 13.3173 7.01042 12.9909C6.68403 12.6645 6.29167 12.5013 5.83333 12.5013C5.375 12.5013 4.98264 12.6645 4.65625 12.9909C4.32986 13.3173 4.16667 13.7096 4.16667 14.168C4.16667 14.6263 4.32986 15.0187 4.65625 15.3451C4.98264 15.6714 5.375 15.8346 5.83333 15.8346ZM4.5 7.5013H7.16667L5.83333 5.10547L4.5 7.5013ZM10.8333 17.5013V10.8346H17.5V17.5013H10.8333ZM12.5 15.8346H15.8333V12.5013H12.5V15.8346ZM14.1667 9.16797C13.375 8.5013 12.7118 7.9388 12.1771 7.48047C11.6424 7.02214 11.2153 6.61936 10.8958 6.27214C10.5764 5.92491 10.3472 5.59852 10.2083 5.29297C10.0694 4.98741 10 4.66102 10 4.3138C10 3.6888 10.2187 3.16102 10.6562 2.73047C11.0937 2.29991 11.6389 2.08464 12.2917 2.08464C12.6667 2.08464 13.0174 2.17144 13.3437 2.34505C13.6701 2.51866 13.9444 2.75825 14.1667 3.0638C14.3889 2.75825 14.6632 2.51866 14.9896 2.34505C15.316 2.17144 15.6667 2.08464 16.0417 2.08464C16.6944 2.08464 17.2396 2.29991 17.6771 2.73047C18.1146 3.16102 18.3333 3.6888 18.3333 4.3138C18.3333 4.66102 18.2639 4.98741 18.125 5.29297C17.9861 5.59852 17.7569 5.92491 17.4375 6.27214C17.1181 6.61936 16.691 7.02214 16.1562 7.48047C15.6215 7.9388 14.9583 8.5013 14.1667 9.16797ZM14.1667 6.98047C15.1667 6.14714 15.8333 5.55686 16.1667 5.20964C16.5 4.86241 16.6667 4.57769 16.6667 4.35547C16.6667 4.17491 16.6146 4.02908 16.5104 3.91797C16.4062 3.80686 16.2639 3.7513 16.0833 3.7513C15.9444 3.7513 15.809 3.7895 15.6771 3.86589C15.5451 3.94227 15.3819 4.07769 15.1875 4.27214L14.1667 5.2513L13.1458 4.27214C12.9514 4.07769 12.7882 3.94227 12.6562 3.86589C12.5243 3.7895 12.3889 3.7513 12.25 3.7513C12.0694 3.7513 11.9271 3.80686 11.8229 3.91797C11.7187 4.02908 11.6667 4.17491 11.6667 4.35547C11.6667 4.57769 11.8333 4.86241 12.1667 5.20964C12.5 5.55686 13.1667 6.14714 14.1667 6.98047Z" fill="#474747"/>
</svg>
