<svg preserveAspectRatio="none" width="100%" height="100%" overflow="visible" style="display: block;" viewBox="0 0 16 20" fill="none" xmlns="http://www.w3.org/2000/svg">
<path id="Shape" d="M0 20V8H3V5C3 3.61667 3.4875 2.4375 4.4625 1.4625C5.4375 0.4875 6.61667 0 8 0C9.38333 0 10.5625 0.4875 11.5375 1.4625C12.5125 2.4375 13 3.61667 13 5V8H16V20H0ZM2 18H14V10H2V18ZM8 16C8.55 16 9.02083 15.8042 9.4125 15.4125C9.80417 15.0208 10 14.55 10 14C10 13.45 9.80417 12.9792 9.4125 12.5875C9.02083 12.1958 8.55 12 8 12C7.45 12 6.97917 12.1958 6.5875 12.5875C6.19583 12.9792 6 13.45 6 14C6 14.55 6.19583 15.0208 6.5875 15.4125C6.97917 15.8042 7.45 16 8 16ZM5 8H11V5C11 4.16667 10.7083 3.45833 10.125 2.875C9.54167 2.29167 8.83333 2 8 2C7.16667 2 6.45833 2.29167 5.875 2.875C5.29167 3.45833 5 4.16667 5 5V8Z" fill="var(--fill-0, #181818)"/>
</svg>
