<svg preserveAspectRatio="none" width="100%" height="100%" overflow="visible" style="display: block;" viewBox="0 0 21.025 19" fill="none" xmlns="http://www.w3.org/2000/svg">
<g id="Shape">
<path d="M1 19V17H3V19H1Z" fill="var(--fill-0, #181818)"/>
<path d="M5 19V17H7V19H5Z" fill="var(--fill-0, #181818)"/>
<path d="M9 19V17H11V19H9Z" fill="var(--fill-0, #181818)"/>
<path d="M13 19V17H15V19H13Z" fill="var(--fill-0, #181818)"/>
<path d="M17 19V17H19V19H17Z" fill="var(--fill-0, #181818)"/>
<path d="M1.4 15L0 13.6L1.6 12L0 10.4L1.4 9L3 10.6L4.6 9L6 10.4L4.4 12L6 13.6L4.6 15L3 13.4L1.4 15Z" fill="var(--fill-0, #181818)"/>
<path fill-rule="evenodd" clip-rule="evenodd" d="M13.45 14C12.95 14 12.4917 13.9042 12.075 13.7125C11.6583 13.5208 11.3 13.2083 11 12.775C10.5833 13.0083 10.1542 13.2167 9.7125 13.4C9.27083 13.5833 8.81667 13.7667 8.35 13.95L7.65 12.075C8.11667 11.9083 8.5625 11.7292 8.9875 11.5375C9.4125 11.3458 9.825 11.1417 10.225 10.925C10.1417 10.5583 10.0792 10.1583 10.0375 9.725C9.99583 9.29167 9.975 8.825 9.975 8.325C9.975 5.925 10.45 3.9375 11.4 2.3625C12.35 0.7875 13.5417 0 14.975 0C15.8417 0 16.55 0.320833 17.1 0.9625C17.65 1.60417 17.925 2.5 17.925 3.65C17.925 5.08333 17.4708 6.5 16.5625 7.9C15.6542 9.3 14.3917 10.5583 12.775 11.675C12.8917 11.7917 13.0125 11.8792 13.1375 11.9375C13.2625 11.9958 13.3917 12.025 13.525 12.025C13.9583 12.025 14.4625 11.75 15.0375 11.2C15.6125 10.65 16.1333 9.925 16.6 9.025L18.425 9.875C18.3083 10.1583 18.2167 10.5 18.15 10.9C18.0833 11.3 18.0917 11.65 18.175 11.95C18.3417 11.8667 18.5375 11.725 18.7625 11.525C18.9875 11.325 19.2167 11.075 19.45 10.775L21.025 12C20.5917 12.6 20.0917 13.0833 19.525 13.45C18.9583 13.8167 18.4333 14 17.95 14C17.6 14 17.2875 13.8958 17.0125 13.6875C16.7375 13.4792 16.5083 13.1583 16.325 12.725C15.8583 13.1417 15.3833 13.4583 14.9 13.675C14.4167 13.8917 13.9333 14 13.45 14ZM12.075 9.725C13.2917 8.825 14.2417 7.8375 14.925 6.7625C15.6083 5.6875 15.95 4.61667 15.95 3.55C15.95 3.01667 15.8625 2.625 15.6875 2.375C15.5125 2.125 15.275 2 14.975 2C14.1917 2 13.5 2.6625 12.9 3.9875C12.3 5.3125 12 6.80833 12 8.475C12 8.70833 12.0042 8.92917 12.0125 9.1375C12.0208 9.34583 12.0417 9.54167 12.075 9.725Z" fill="var(--fill-0, #181818)"/>
</g>
</svg>
